<svg width="47" height="47" viewBox="0 0 47 47" fill="none" xmlns="http://www.w3.org/2000/svg">
<path d="M23.5 18.6433C22.5394 18.6433 21.6005 18.9281 20.8018 19.4618C20.0031 19.9954 19.3806 20.754 19.013 21.6414C18.6454 22.5288 18.5493 23.5053 18.7367 24.4474C18.924 25.3895 19.3866 26.2549 20.0658 26.9341C20.745 27.6134 21.6104 28.0759 22.5525 28.2633C23.4946 28.4507 24.4711 28.3545 25.3586 27.9869C26.246 27.6193 27.0045 26.9969 27.5382 26.1982C28.0718 25.3995 28.3567 24.4605 28.3567 23.5C28.3567 22.8622 28.231 22.2306 27.987 21.6414C27.7429 21.0522 27.3852 20.5168 26.9342 20.0658C26.4832 19.6148 25.9478 19.2571 25.3586 19.013C24.7693 18.7689 24.1378 18.6433 23.5 18.6433ZM42.9462 13.8454C42.9359 12.3331 42.6575 10.8346 42.1238 9.41954C41.7307 8.38409 41.1225 7.44377 40.3393 6.66061C39.5562 5.87746 38.6159 5.26928 37.5804 4.87621C36.1654 4.34249 34.6669 4.06401 33.1546 4.05371C30.6283 3.91663 29.8842 3.91663 23.5 3.91663C17.1158 3.91663 16.3717 3.91663 13.8454 4.05371C12.3331 4.06401 10.8346 4.34249 9.41958 4.87621C8.38413 5.26928 7.44381 5.87746 6.66065 6.66061C5.8775 7.44377 5.26932 8.38409 4.87625 9.41954C4.34253 10.8346 4.06405 12.3331 4.05375 13.8454C3.91667 16.3716 3.91667 17.1158 3.91667 23.5C3.91667 29.8841 3.91667 30.6283 4.05375 33.1545C4.07483 34.6722 4.35293 36.1753 4.87625 37.6C5.26758 38.6307 5.87525 39.5656 6.65833 40.3416C7.43813 41.1295 8.38047 41.7377 9.41958 42.1237C10.8346 42.6574 12.3331 42.9359 13.8454 42.9462C16.3717 43.0833 17.1158 43.0833 23.5 43.0833C29.8842 43.0833 30.6283 43.0833 33.1546 42.9462C34.6669 42.9359 36.1654 42.6574 37.5804 42.1237C38.6195 41.7377 39.5619 41.1295 40.3417 40.3416C41.1248 39.5656 41.7324 38.6307 42.1238 37.6C42.6569 36.178 42.9354 34.6732 42.9462 33.1545C43.0833 30.6283 43.0833 29.8841 43.0833 23.5C43.0833 17.1158 43.0833 16.3716 42.9462 13.8454ZM37.9721 29.512C37.9092 30.7205 37.6513 31.9109 37.2083 33.037C36.8282 33.9764 36.263 34.8298 35.5464 35.5464C34.8298 36.2629 33.9765 36.8281 33.0371 37.2083C31.9003 37.6266 30.7033 37.8581 29.4925 37.8937H17.5075C16.2967 37.8581 15.0997 37.6266 13.9629 37.2083C12.9918 36.8474 12.1148 36.2717 11.3975 35.5241C10.6879 34.8216 10.1399 33.9729 9.79167 33.037C9.37172 31.9014 9.1466 30.7031 9.12583 29.4925V17.5075C9.1466 16.2969 9.37172 15.0985 9.79167 13.9629C10.1526 12.9917 10.7283 12.1148 11.4758 11.3975C12.1815 10.6917 13.0293 10.1443 13.9629 9.79163C15.0997 9.37334 16.2967 9.14187 17.5075 9.10621H29.4925C30.7033 9.14187 31.9003 9.37334 33.0371 9.79163C34.0082 10.1525 34.8852 10.7282 35.6025 11.4758C36.3121 12.1783 36.8601 13.0271 37.2083 13.9629C37.6266 15.0997 37.8581 16.2967 37.8938 17.5075V23.5C37.8938 27.5341 38.0308 27.9454 37.9721 29.4925V29.512ZM34.8388 14.942C34.6056 14.3095 34.238 13.735 33.7612 13.2583C33.2845 12.7816 32.7101 12.414 32.0775 12.1808C31.2089 11.8797 30.2941 11.7339 29.375 11.75H17.625C16.7012 11.759 15.7863 11.9314 14.9225 12.2591C14.2996 12.4817 13.7312 12.8343 13.2551 13.2935C12.7791 13.7527 12.4062 14.308 12.1612 14.9225C11.8769 15.7946 11.7379 16.7077 11.75 17.625V29.375C11.7694 30.2977 11.9415 31.2109 12.2592 32.0775C12.4923 32.71 12.86 33.2845 13.3367 33.7612C13.8134 34.2379 14.3878 34.6055 15.0204 34.8387C15.856 35.146 16.7352 35.3179 17.625 35.3479H29.375C30.2988 35.3388 31.2137 35.1665 32.0775 34.8387C32.7101 34.6055 33.2845 34.2379 33.7612 33.7612C34.238 33.2845 34.6056 32.71 34.8388 32.0775C35.1665 31.2137 35.3389 30.2988 35.3479 29.375V17.625C35.3485 16.7002 35.1758 15.7836 34.8388 14.9225V14.942ZM23.5 30.9808C22.5185 30.9808 21.5467 30.7872 20.6402 30.411C19.7337 30.0348 18.9103 29.4834 18.2172 28.7885C17.5241 28.0936 16.9749 27.2688 16.6011 26.3613C16.2273 25.4538 16.0362 24.4814 16.0387 23.5C16.0388 22.0196 16.478 20.5724 17.3009 19.3418C18.1237 18.1112 19.2932 17.1523 20.6613 16.5867C22.0294 16.0211 23.5346 15.8741 24.9862 16.1643C26.4379 16.4546 27.7708 17.169 28.8163 18.2172C29.8617 19.2653 30.5726 20.6001 30.8591 22.0526C31.1455 23.505 30.9945 25.0097 30.4253 26.3763C29.8561 27.7429 28.8942 28.9099 27.6615 29.7296C26.4287 30.5492 24.9804 30.9847 23.5 30.9808ZM31.3333 17.4879C30.9004 17.4421 30.4998 17.2376 30.2086 16.914C29.9175 16.5904 29.7564 16.1705 29.7564 15.7352C29.7564 15.2998 29.9175 14.8799 30.2086 14.5563C30.4998 14.2327 30.9004 14.0283 31.3333 13.9825C31.7662 14.0283 32.1669 14.2327 32.458 14.5563C32.7492 14.8799 32.9103 15.2998 32.9103 15.7352C32.9103 16.1705 32.7492 16.5904 32.458 16.914C32.1669 17.2376 31.7662 17.4421 31.3333 17.4879Z" fill="url(#paint0_linear_75_30)"/>
<defs>
<linearGradient id="paint0_linear_75_30" x1="23.5" y1="3.91663" x2="23.5" y2="43.0833" gradientUnits="userSpaceOnUse">
<stop stop-color="#A834B2"/>
<stop offset="0.419792" stop-color="#6D3FBD"/>
<stop offset="0.607292" stop-color="#D72C76"/>
<stop offset="1" stop-color="#FEC05C"/>
</linearGradient>
</defs>
</svg>
