<svg width="47" height="47" viewBox="0 0 47 47" fill="none" xmlns="http://www.w3.org/2000/svg">
<path d="M40.0462 40.0469H33.0823V29.1408C33.0823 26.5402 33.0359 23.1924 29.4604 23.1924C25.8333 23.1924 25.2783 26.026 25.2783 28.9516V40.0461H18.3146V17.6191H24.9998V20.684H25.0934C25.7624 19.54 26.7292 18.5989 27.8908 17.9609C29.0524 17.323 30.3652 17.012 31.6896 17.0611C38.7478 17.0611 40.0491 21.7038 40.0491 27.7437L40.0462 40.0469ZM10.4568 14.5536C8.22482 14.554 6.41513 12.7448 6.41477 10.5129C6.4144 8.28093 8.22335 6.47124 10.4553 6.47088C12.6872 6.47032 14.4969 8.27946 14.4973 10.5114C14.4975 11.5832 14.0719 12.6112 13.3142 13.3693C12.5564 14.1273 11.5286 14.5533 10.4568 14.5536ZM13.9388 40.047H6.96757V17.6191H13.9386V40.0469L13.9388 40.047ZM43.518 0.0034207H3.46827C1.57542 -0.0178762 0.0231328 1.49842 0 3.39128V43.608C0.0223984 45.5018 1.5745 47.0196 3.46809 46.9997H43.518C45.4156 47.0232 46.9737 45.5055 47 43.608V3.38815C46.973 1.49163 45.4147 -0.0244855 43.518 0.000299605" fill="#0A66C2"/>
</svg>
