<svg width="47" height="47" viewBox="0 0 47 47" fill="none" xmlns="http://www.w3.org/2000/svg">
<g clip-path="url(#clip0_75_2)">
<path d="M1.00297 23.2187C1.00187 27.1677 2.04175 31.0235 4.01905 34.422L0.813873 46.034L12.7901 42.9181C16.1025 44.7074 19.8139 45.645 23.5854 45.6452H23.5953C36.0457 45.6452 46.1806 35.5925 46.1859 23.2364C46.1883 17.249 43.8405 11.6188 39.5749 7.38302C35.31 3.14755 29.6379 0.813768 23.5944 0.811035C11.1425 0.811035 1.0083 10.8632 1.00316 23.2187" fill="url(#paint0_linear_75_2)"/>
<path d="M0.196445 23.2114C0.19516 27.3024 1.2723 31.2962 3.32011 34.8164L0 46.8446L12.4056 43.6171C15.8238 45.4663 19.6723 46.4413 23.5883 46.4427H23.5984C36.4955 46.4427 46.9945 36.0284 47 23.23C47.0022 17.0275 44.57 11.1949 40.152 6.80735C35.7334 2.42032 29.8584 0.00255039 23.5984 0C10.6991 0 0.20177 10.4129 0.196629 23.2114H0.196445ZM7.58426 34.2102L7.12105 33.4806C5.17386 30.4085 4.1461 26.8583 4.14757 23.2129C4.15179 12.5751 12.8769 3.92031 23.6058 3.92031C28.8015 3.9225 33.6843 5.9322 37.3569 9.57853C41.0293 13.2252 43.0502 18.0728 43.0489 23.2286C43.0441 33.8664 34.3188 42.5222 23.5984 42.5222H23.5907C20.1 42.5204 16.6766 41.5903 13.691 39.8325L12.9804 39.4144L5.6187 41.3296L7.58426 34.21V34.2102Z" fill="url(#paint1_linear_75_2)"/>
<path d="M17.7495 13.5076C17.3114 12.5415 16.8504 12.522 16.4339 12.5051C16.0927 12.4905 15.7028 12.4916 15.3132 12.4916C14.9232 12.4916 14.2897 12.6372 13.7541 13.2174C13.218 13.7981 11.7074 15.2016 11.7074 18.056C11.7074 20.9106 13.8028 23.6692 14.0949 24.0567C14.3873 24.4434 18.14 30.4886 24.0833 32.8142C29.0227 34.7468 30.0279 34.3624 31.0999 34.2655C32.1721 34.169 34.5595 32.8625 35.0466 31.5077C35.534 30.153 35.534 28.9919 35.3879 28.7492C35.2417 28.5075 34.8518 28.3623 34.267 28.0723C33.6821 27.7821 30.8074 26.3785 30.2715 26.1848C29.7354 25.9913 29.3456 25.8948 28.9557 26.4757C28.5657 27.0558 27.446 28.3623 27.1047 28.7492C26.7638 29.1371 26.4225 29.1853 25.8379 28.8951C25.2528 28.604 23.3697 27.9921 21.1355 26.0158C19.3972 24.4779 18.2237 22.5787 17.8826 21.9978C17.5415 21.4178 17.8461 21.1033 18.1393 20.8142C18.402 20.5543 18.7242 20.1367 19.0168 19.7981C19.3084 19.4593 19.4057 19.2175 19.6007 18.8306C19.7958 18.4433 19.6981 18.1045 19.5522 17.8143C19.4057 17.5241 18.2694 14.6549 17.7495 13.5077" fill="white"/>
</g>
<defs>
<linearGradient id="paint0_linear_75_2" x1="23.4999" y1="46.034" x2="23.4999" y2="0.811035" gradientUnits="userSpaceOnUse">
<stop stop-color="#1FAF38"/>
<stop offset="1" stop-color="#60D669"/>
</linearGradient>
<linearGradient id="paint1_linear_75_2" x1="23.5" y1="46.8446" x2="23.5" y2="0" gradientUnits="userSpaceOnUse">
<stop stop-color="#F9F9F9"/>
<stop offset="1" stop-color="white"/>
</linearGradient>
<clipPath id="clip0_75_2">
<rect width="47" height="47" fill="white"/>
</clipPath>
</defs>
</svg>
